<?xml version="1.0" encoding="UTF-8"?>
<svg width="19px" height="16px" viewBox="0 0 19 16" version="1.1" xmlns="http://www.w3.org/2000/svg" xmlns:xlink="http://www.w3.org/1999/xlink">
    <!-- Generator: Sketch 60.1 (88133) - https://sketch.com -->
    <title>danger</title>
    <desc>Created with Sketch.</desc>
    <g id="Plan-Member" stroke="none" stroke-width="1" fill="none" fill-rule="evenodd">
        <g id="AL2-1799_AODA_Login-Copy-8" transform="translate(-180.000000, -181.000000)" fill="#EA0F3B" fill-rule="nonzero">
            <g id="Insurance-benefits" transform="translate(160.000000, 165.000000)">
                <g id="danger" transform="translate(20.000000, 16.000000)">
                    <path d="M18.6548653,14.251421 L10.3977375,0.557704413 C10.1890578,0.211620374 9.81437545,0 9.41021252,0 C9.00604959,0 8.63136721,0.211583615 8.42268754,0.557704413 L0.165633294,14.251421 C-0.0491115768,14.6075769 -0.0554708481,15.0518069 0.149055078,15.4139178 C0.353581005,15.7760654 0.737232531,16 1.15312152,16 L17.6673403,16 C18.0832293,16 18.4668808,15.7760287 18.6714067,15.4139178 C18.8759326,15.0517702 18.8696101,14.6075769 18.6548653,14.251421 Z M9.416388,4.73681163 C9.89061319,4.73681163 10.2918722,5.00434213 10.2918722,5.47853057 C10.2918722,6.92546695 10.1216422,9.00476486 10.1216422,10.4517012 C10.1216422,10.8286627 9.70821606,10.9866887 9.416388,10.9866887 C9.02733293,10.9866887 8.69900339,10.8286259 8.69900339,10.4517012 C8.69900339,9.00476486 8.52881017,6.92546695 8.52881017,5.47853057 C8.52881017,5.00434213 8.91786524,4.73681163 9.416388,4.73681163 Z M9.42855516,13.6982746 C8.89356768,13.6982746 8.49227193,13.2605509 8.49227193,12.7620282 C8.49227193,12.2513382 8.89353092,11.8257817 9.42855516,11.8257817 C9.92707791,11.8257817 10.3526712,12.2513382 10.3526712,12.7620282 C10.3526712,13.2605509 9.92707791,13.6982746 9.42855516,13.6982746 Z" id="Shape"></path>
                </g>
            </g>
        </g>
    </g>
</svg>